<svg xmlns="http://www.w3.org/2000/svg" width="24.509" height="12.754" viewBox="0 0 24.509 12.754">
  <g id="arrow" transform="translate(-1225.49 -2387.246)">
    <path id="パス_729" data-name="パス 729" d="M2307.3,1276.662c-.454.192-.941.426-1.488.715a2.676,2.676,0,0,0-.889.649,1.658,1.658,0,0,0-.249.946,1.9,1.9,0,0,0,.784,1.473,4.5,4.5,0,0,0,1.359.636l.022.008c.3.1.609.211.917.352a18.6,18.6,0,0,1,4.846,3.254,21.62,21.62,0,0,1,3.879,4.766l.142.24q.43.731.8,1.51a12.132,12.132,0,0,0-4.275-8.079,17.64,17.64,0,0,0-4.812-3.332l-1.93-.845,1.931-.843a17.614,17.614,0,0,0,4.811-3.33,12.14,12.14,0,0,0,4.275-8.08q-.372.775-.8,1.507A20.16,20.16,0,0,1,2307.3,1276.662Z" transform="translate(2516.701 82.572) rotate(90)" fill="#00053a"/>
  </g>
</svg>
