<?xml version="1.0" encoding="UTF-8"?><svg xmlns="http://www.w3.org/2000/svg" viewBox="0 0 20.03 15.93"><defs><style>.e{fill:#ede9de;}</style></defs><g id="a"/><g id="b"><g id="c"><path id="d" class="e" d="M13.63,12.47c-1.11-1.46-2.14-2.99-3.08-4.56C12.86,4.11,15.24,.36,18.7,.18c-3.37-1.06-6.1,2.81-8.69,6.89C7.42,2.99,4.7-.88,1.33,.18c3.46,.18,5.84,3.93,8.16,7.73-.95,1.57-1.98,3.09-3.08,4.56-1.33,1.67-2.62,3.63-6.4,2.91,4.49,2.08,7.26-2.1,10.02-6.6,2.75,4.5,5.52,8.68,10.02,6.6-3.78,.72-5.07-1.24-6.4-2.91Z"/></g></g></svg>