<svg xmlns="http://www.w3.org/2000/svg" width="177.801" height="27.897" viewBox="0 0 177.801 27.897">
  <g id="logo" transform="translate(0 0.336)">
    <g id="グループ_333" data-name="グループ 333" transform="translate(168.847 7.616)">
      <path id="パス_743" data-name="パス 743" d="M195.342,9.706a2.385,2.385,0,0,0-2.294-1.267h-.035a3.75,3.75,0,0,0-.592.052l.032.242c.061-.005.128-.006.186-.007.818,0,1.34.459,1.595,1.4a5.112,5.112,0,0,1,.049,2.039l-3.64.341-.086.009-.159.639,4.962-.465.093-.037.038-.155c.026-.1.053-.225.065-.294l.027-.179h0A3.592,3.592,0,0,0,195.342,9.706Z" transform="translate(-186.71 -8.439)" fill="#00053a"/>
      <path id="パス_744" data-name="パス 744" d="M190.732,17.049a2.413,2.413,0,0,1-2.361-.594,2.7,2.7,0,0,1-.455-2.365,9.949,9.949,0,0,1,.479-1.55,7.722,7.722,0,0,1,1.759-2.749,4.193,4.193,0,0,1,.9-.666l-.107-.219a7.25,7.25,0,0,0-1.6.995,8.416,8.416,0,0,0-2.583,3.452,4.063,4.063,0,0,0-.141,3.335,2.361,2.361,0,0,0,1.7,1.319,3.555,3.555,0,0,0,.648.056.272.272,0,0,0,.053,0,.576.576,0,0,0,.091-.008l.035,0c.1,0,.207-.015.335-.031l.1-.012.122-.019a5.9,5.9,0,0,0,.663-.151,7.132,7.132,0,0,0,2.665-1.455l-.153-.191A4.838,4.838,0,0,1,190.732,17.049Z" transform="translate(-186.329 -8.483)" fill="#00053a"/>
    </g>
    <g id="グループ_334" data-name="グループ 334" transform="translate(68.558 -0.336)">
      <path id="パス_745" data-name="パス 745" d="M86.5,8.151a3.279,3.279,0,0,0-2.977.559,8.48,8.48,0,0,0-2.009,1.736l-.14.163.85.15.043-.07a5.718,5.718,0,0,1,1.786-1.85c.739-.451,1.307-.536,1.69-.257s.565.908.546,1.865a8.112,8.112,0,0,1-.167,1.4,7.5,7.5,0,0,1-1.459,2.914,7.123,7.123,0,0,1-2.619,2.119c-.874.41-1.522.509-1.879.284a.5.5,0,0,1-.208-.269l-.063-.175-.308.289.042.082a1.2,1.2,0,0,0,.43.486,1.863,1.863,0,0,0,1.01.264,3.934,3.934,0,0,0,1.2-.217,5.727,5.727,0,0,0,.6-.237c.052-.022.105-.05.158-.076l.056-.028c.109-.053.217-.11.325-.172l.045-.024a.8.8,0,0,0,.077-.042c.017-.011.034-.022.049-.034l.031-.021a7.519,7.519,0,0,0,.641-.439,9.788,9.788,0,0,0,2.195-2.437,7,7,0,0,0,1.247-3.6A2.22,2.22,0,0,0,86.5,8.151Z" transform="translate(-76.025 -0.445)" fill="#00053a"/>
      <path id="パス_746" data-name="パス 746" d="M82.867,1.509l.047-.148a2.836,2.836,0,0,1,.265-.655,1.307,1.307,0,0,1,.175-.233.69.69,0,0,1,.148-.1.547.547,0,0,1,.163-.038h.355l.2-.617-.284-.027c-.151-.013-.31-.024-.47-.024-1.329,0-1.687,1.12-2,2.109l-4,12.194q-.084.27-.164.546a11.656,11.656,0,0,1-.458,1.354,2.385,2.385,0,0,1-.15.293,1.229,1.229,0,0,1-.173.232.523.523,0,0,1-.311.141h-.359l-.2.616.286.027c.15.013.306.024.466.024a1.766,1.766,0,0,0,1.642-1.143,5.789,5.789,0,0,0,.305-.774L82.567,2.436C82.668,2.127,82.769,1.819,82.867,1.509Z" transform="translate(-75.656 0.336)" fill="#00053a"/>
    </g>
    <g id="グループ_335" data-name="グループ 335" transform="translate(103.064 7.508)">
      <path id="パス_747" data-name="パス 747" d="M117.781,15.976a2.264,2.264,0,0,1-.6.546,1.449,1.449,0,0,1-.156.086,1.51,1.51,0,0,1-.159.071l-.005,0-.046.015v0c-.069.023-.138.044-.207.061a1.872,1.872,0,0,1-1.1-.05.739.739,0,0,1-.412-.746,4.524,4.524,0,0,1,.222-1.153l.015-.05c.14-.5.311-1,.485-1.518l.016-.047c.076-.227.154-.454.227-.681l.792-2.431a2.442,2.442,0,0,0,.176-1.2c0-.013-.012-.019-.015-.031a.632.632,0,0,0-.109-.223c-.009-.011-.015-.024-.025-.034a1.007,1.007,0,0,0-.691-.27h-1.147s-.319.736-.3.736c.1,0,.2-.005.3,0a1.265,1.265,0,0,1,.437.038.3.3,0,0,1,.163.416l-1.339,4.109q-.067.2-.138.407a8.356,8.356,0,0,0-.388,1.382,1.936,1.936,0,0,0,1.718,2.275,2.716,2.716,0,0,0,.451.037,3.508,3.508,0,0,0,1.257-.237,3.419,3.419,0,0,0,.584-.287c.043-.026.523-.348.486-.393Z" transform="translate(-113.734 -8.32)" fill="#00053a"/>
      <path id="パス_748" data-name="パス 748" d="M121.745,16.622a2.811,2.811,0,0,1,0-1.229c.014-.072.029-.143.046-.214.07-.289.166-.575.232-.768l1.578-4.831a1.064,1.064,0,0,1,.255-.425c.094-.092.167-.094.376-.094h.224l.027-.049.3-.688-3.178,0-.315.727.723,0s.357-.021.207.44l-1.75,5.365a2.28,2.28,0,0,0,.777,2.7,2.41,2.41,0,0,0,.328.208l.245.121a1.19,1.19,0,0,0,.3-.464c.018-.114-.042-.179-.11-.262A1.417,1.417,0,0,1,121.745,16.622Z" transform="translate(-114.351 -8.32)" fill="#00053a"/>
    </g>
    <g id="グループ_336" data-name="グループ 336" transform="translate(35.338 7.508)">
      <path id="パス_749" data-name="パス 749" d="M43.044,15.976a2.265,2.265,0,0,1-.6.546,1.448,1.448,0,0,1-.156.086,1.51,1.51,0,0,1-.159.071l-.005,0-.046.015v0c-.07.023-.139.044-.208.061a1.872,1.872,0,0,1-1.1-.05.739.739,0,0,1-.412-.746,4.524,4.524,0,0,1,.222-1.153l.014-.05c.14-.5.311-1,.485-1.518l.016-.047c.076-.227.154-.454.227-.681l.792-2.431a2.442,2.442,0,0,0,.176-1.2c0-.013-.012-.019-.015-.031a.632.632,0,0,0-.109-.223c-.009-.011-.015-.024-.025-.034a1.007,1.007,0,0,0-.691-.27H40.3s-.319.736-.3.736c.1,0,.2-.005.3,0a1.265,1.265,0,0,1,.437.038.3.3,0,0,1,.163.416l-1.339,4.109q-.067.2-.138.407a8.356,8.356,0,0,0-.388,1.382,1.936,1.936,0,0,0,1.718,2.275,2.716,2.716,0,0,0,.451.037,3.507,3.507,0,0,0,1.257-.237,3.419,3.419,0,0,0,.584-.287c.043-.026.523-.348.486-.393Z" transform="translate(-38.997 -8.32)" fill="#00053a"/>
      <path id="パス_750" data-name="パス 750" d="M47.008,16.622a2.811,2.811,0,0,1,0-1.229c.014-.072.029-.143.046-.214.07-.289.166-.575.232-.768l1.578-4.831a1.064,1.064,0,0,1,.255-.425c.094-.092.167-.094.376-.094h.224l.027-.049.3-.688-3.178,0-.315.727.723,0s.357-.021.207.44l-1.75,5.365a2.279,2.279,0,0,0,.777,2.7,2.411,2.411,0,0,0,.328.208l.245.121a1.19,1.19,0,0,0,.3-.464c.018-.114-.042-.179-.11-.262A1.417,1.417,0,0,1,47.008,16.622Z" transform="translate(-39.614 -8.32)" fill="#00053a"/>
    </g>
    <g id="グループ_337" data-name="グループ 337" transform="translate(135.585 7.508)">
      <path id="パス_751" data-name="パス 751" d="M156.621,10.251a2.259,2.259,0,0,1,.6-.545,1.451,1.451,0,0,1,.156-.087c.067-.033.122-.057.159-.071l.005,0,.046-.016v0c.069-.024.138-.045.207-.062a1.879,1.879,0,0,1,1.1.051.736.736,0,0,1,.412.745,4.531,4.531,0,0,1-.222,1.154l-.014.05c-.14.495-.311,1-.485,1.517l-.015.048c-.077.227-.155.454-.228.681l-.792,2.432a2.45,2.45,0,0,0-.176,1.2c0,.012.012.018.015.031a.635.635,0,0,0,.109.222c.009.012.016.024.025.035a1.014,1.014,0,0,0,.692.27h1.147s.319-.736.3-.736c-.1,0-.2,0-.3,0a1.267,1.267,0,0,1-.437-.037.3.3,0,0,1-.163-.417l1.339-4.108c.044-.136.092-.272.138-.407a8.278,8.278,0,0,0,.388-1.383,1.936,1.936,0,0,0-1.718-2.275,2.709,2.709,0,0,0-.451-.036,3.544,3.544,0,0,0-1.84.524c-.043.026-.523.347-.486.392Z" transform="translate(-150.235 -8.338)" fill="#00053a"/>
      <path id="パス_752" data-name="パス 752" d="M152.663,9.589a2.807,2.807,0,0,1,0,1.228c-.015.072-.03.143-.047.215-.07.289-.166.574-.232.768L150.8,16.63a1.092,1.092,0,0,1-.256.425c-.094.091-.167.094-.375.094h-.225l-.027.049-.3.687,3.178,0,.315-.726-.723,0s-.357.022-.207-.439l1.75-5.365a2.279,2.279,0,0,0-.777-2.7,2.231,2.231,0,0,0-.328-.209l-.245-.12a1.188,1.188,0,0,0-.3.464c-.019.114.041.179.109.261A1.4,1.4,0,0,1,152.663,9.589Z" transform="translate(-149.623 -8.32)" fill="#00053a"/>
    </g>
    <g id="グループ_338" data-name="グループ 338" transform="translate(0 7.474)">
      <path id="パス_753" data-name="パス 753" d="M7.475,15.055l-.075.1a3.459,3.459,0,0,1-.43.476,4.226,4.226,0,0,1-1.7.958c-.087.027-.181.051-.3.077-.037.008-.073.014-.11.019L4.8,16.69a1.052,1.052,0,0,1-.812-.159.967.967,0,0,1-.331-.67,2.98,2.98,0,0,1,.036-.729,5.317,5.317,0,0,1,.217-.909c.035-.1.072-.2.107-.3l1.159-3.214c.035-.1.084-.216.137-.336a5.411,5.411,0,0,0,.259-.683,1.082,1.082,0,0,0-.12-1.008.892.892,0,0,0-.256-.214c-.016-.01-.026-.023-.043-.032a2.877,2.877,0,0,0-1.245-.15H3.16l-.361.79h.414c.121,0,.256.007.343.014a.524.524,0,0,1,.432.208c.137.214.1.613-.121,1.186-.239.631-.468,1.278-.691,1.9l-.466,1.272c-.034.094-.07.189-.106.285l-.128.346c-.069.192-.135.4-.208.664A3.922,3.922,0,0,0,2.1,16.589a1.364,1.364,0,0,0,.679,1.04,1.619,1.619,0,0,0,.439.145,1.509,1.509,0,0,0,.252.019c.064,0,.133,0,.2-.008a.586.586,0,0,0,.064,0,.367.367,0,0,0,.064-.012l.032,0c.075-.011.159-.026.253-.047l.045-.009c.043-.009.085-.018.125-.03a4.716,4.716,0,0,0,.508-.166,7.249,7.249,0,0,0,2.274-1.455,6.752,6.752,0,0,0,.654-.7l.116-.143Z" transform="translate(-0.194 -8.283)" fill="#00053a"/>
      <path id="パス_754" data-name="パス 754" d="M9.507,8.371l-.03.066c-.03.065-.124.274-.177.386L9.219,9h.288a1.694,1.694,0,0,1,.51.033.5.5,0,0,1,.291.24.72.72,0,0,1,0,.52c-.085.362-.215.714-.33,1.067l-.2.617-.252.769-.285.87-.3.92-.3.917-.283.865-.249.76-.2.605-.13.4-.046.141-.021.063c-.052.164-.108.329-.162.488l-.075.224a29.962,29.962,0,0,0-5.454,4.739,10.515,10.515,0,0,0-1.348,2l-.017.033a3.5,3.5,0,0,0-.585,2.448.84.84,0,0,0,.462.55,1.359,1.359,0,0,0,.576.114c.04,0,.08,0,.121,0a2.25,2.25,0,0,0,.7-.163A7.946,7.946,0,0,0,4.93,25.783c.435-.528.8-1.1,1.186-1.661a16.136,16.136,0,0,0,1-1.7c.107-.208.209-.418.305-.632.063-.139.125-.279.188-.419q.1-.237.21-.47c.334-.737.643-1.518.916-2.322l1.815-5.5c.025-.077.053-.154.08-.232l.073-.256.456-1.376.194-.58c.087-.258.162-.524.264-.777a1.323,1.323,0,0,1,.937-.849,1.009,1.009,0,0,1,.105-.014,2.764,2.764,0,0,1,.495-.006l.112.02.105-.636ZM5.835,22.981l-.039.064c-.022.044-.042.091-.063.136-.031.068-.062.135-.1.2A12.3,12.3,0,0,1,4,25.947c-.273.3-1.2,1.287-1.83,1.287H2.143a.452.452,0,0,1-.358-.2,1.189,1.189,0,0,1-.176-.362c-.438-2.835,4.3-6.138,5.466-6.9A20.692,20.692,0,0,1,5.835,22.981Z" transform="translate(0 -8.291)" fill="#00053a"/>
      <path id="パス_755" data-name="パス 755" d="M13.862,16l0,0-.082-.053c-.117.224-2.763,2.043-2.763,2.043l-.536,1.252a16.888,16.888,0,0,0,3.591-3.106Z" transform="translate(-0.983 -9.002)" fill="#00053a"/>
    </g>
  </g>
</svg>
